<svg width="171" height="34" viewBox="0 0 171 34" fill="none" xmlns="http://www.w3.org/2000/svg">
<path d="M42.1805 13.2129C42.9507 11.9578 43.9491 10.9736 45.1757 10.2605C46.4308 9.54733 47.8571 9.19075 49.4546 9.19075V15.4807H47.8714C45.9887 15.4807 44.5624 15.9229 43.5925 16.8072C42.6511 17.6915 42.1805 19.2319 42.1805 21.4284V33.2382H36.19V9.53306H42.1805V13.2129Z" fill="black"/>
<path d="M60.4641 14.4538V25.9212C60.4641 26.72 60.6495 27.3047 61.0203 27.6756C61.4197 28.0179 62.0758 28.1891 62.9886 28.1891H65.7699V33.2382H62.0045C56.9554 33.2382 54.4308 30.7849 54.4308 25.8785V14.4538H51.6067V9.53306H54.4308V3.67098H60.4641V9.53306H65.7699V14.4538H60.4641Z" fill="black"/>
<path d="M92.1149 20.8721C92.1149 21.7279 92.0578 22.4981 91.9437 23.1827H74.6142C74.7568 24.8943 75.3558 26.235 76.4113 27.2049C77.4668 28.1748 78.7647 28.6597 80.3051 28.6597C82.5301 28.6597 84.1133 27.7041 85.0547 25.7929H91.5158C90.8312 28.075 89.519 29.9577 87.5792 31.441C85.6395 32.8958 83.2575 33.6233 80.4335 33.6233C78.1514 33.6233 76.0975 33.124 74.2719 32.1256C72.4747 31.0987 71.0627 29.6581 70.0357 27.804C69.0373 25.9498 68.5381 23.8103 68.5381 21.3856C68.5381 18.9324 69.0373 16.7787 70.0357 14.9245C71.0341 13.0703 72.4319 11.644 74.2291 10.6456C76.0262 9.64717 78.0943 9.14796 80.4335 9.14796C82.687 9.14796 84.6981 9.63291 86.4667 10.6028C88.2638 11.5727 89.6474 12.9562 90.6172 14.7533C91.6156 16.5219 92.1149 18.5615 92.1149 20.8721ZM85.9104 19.1606C85.8819 17.6202 85.3257 16.3936 84.2417 15.4807C83.1577 14.5394 81.8312 14.0687 80.2623 14.0687C78.779 14.0687 77.5238 14.5251 76.4969 15.4379C75.4985 16.3222 74.8852 17.5631 74.657 19.1606H85.9104Z" fill="black"/>
<path d="M125.926 9.19075C128.836 9.19075 131.175 10.0893 132.944 11.8865C134.741 13.6551 135.639 16.1368 135.639 19.3317V33.2382H129.649V20.1447C129.649 18.2905 129.178 16.8785 128.237 15.9086C127.295 14.9102 126.012 14.411 124.386 14.411C122.76 14.411 121.462 14.9102 120.492 15.9086C119.551 16.8785 119.08 18.2905 119.08 20.1447V33.2382H113.089V20.1447C113.089 18.2905 112.619 16.8785 111.677 15.9086C110.736 14.9102 109.452 14.411 107.826 14.411C106.172 14.411 104.86 14.9102 103.89 15.9086C102.948 16.8785 102.478 18.2905 102.478 20.1447V33.2382H96.4873V9.53306H102.478V12.3999C103.248 11.4015 104.232 10.6171 105.43 10.0465C106.657 9.47601 107.998 9.19075 109.452 9.19075C111.307 9.19075 112.961 9.59012 114.416 10.3888C115.871 11.159 116.998 12.2716 117.796 13.7264C118.566 12.3571 119.679 11.2589 121.134 10.4316C122.617 9.60438 124.215 9.19075 125.926 9.19075Z" fill="black"/>
<path d="M143.634 7.09334C142.579 7.09334 141.695 6.7653 140.982 6.1092C140.297 5.42457 139.955 4.58306 139.955 3.58465C139.955 2.58624 140.297 1.75898 140.982 1.10289C141.695 0.418264 142.579 0.0759527 143.634 0.0759527C144.69 0.0759527 145.56 0.418264 146.245 1.10289C146.958 1.75898 147.314 2.58624 147.314 3.58465C147.314 4.58306 146.958 5.42457 146.245 6.1092C145.56 6.7653 144.69 7.09334 143.634 7.09334ZM146.587 9.91742L146.36 27.1249L140.596 33.6225V9.91742H146.587Z" fill="black"/>
<path d="M161.149 33.6225C159.209 33.6225 157.469 33.2802 155.929 32.5956C154.388 31.8824 153.162 30.9268 152.249 29.7287C151.364 28.5306 150.879 27.2042 150.794 25.7494H156.827C156.941 26.6622 157.383 27.4181 158.154 28.0172C158.952 28.6162 159.936 28.9157 161.106 28.9157C162.247 28.9157 163.131 28.6875 163.759 28.2311C164.415 27.7747 164.743 27.1899 164.743 26.4768C164.743 25.7066 164.344 25.136 163.545 24.7652C162.775 24.3658 161.534 23.938 159.822 23.4815C158.054 23.0537 156.599 22.6115 155.458 22.1551C154.345 21.6987 153.376 20.9998 152.548 20.0584C151.75 19.1171 151.35 17.8477 151.35 16.2502C151.35 14.938 151.721 13.7399 152.463 12.6559C153.233 11.5719 154.317 10.7162 155.715 10.0886C157.141 9.46102 158.81 9.14724 160.721 9.14724C163.545 9.14724 165.799 9.86039 167.482 11.2867C169.165 12.6845 170.092 14.5814 170.263 16.9776H164.529C164.444 16.0363 164.044 15.2946 163.331 14.7526C162.646 14.1821 161.719 13.8968 160.55 13.8968C159.466 13.8968 158.624 14.0965 158.025 14.4959C157.455 14.8952 157.169 15.4515 157.169 16.1646C157.169 16.9634 157.569 17.5767 158.368 18.0046C159.166 18.4039 160.407 18.8175 162.09 19.2454C163.802 19.6733 165.214 20.1155 166.326 20.5719C167.439 21.0283 168.394 21.7415 169.193 22.7113C170.02 23.6527 170.448 24.9078 170.477 26.4768C170.477 27.846 170.092 29.0726 169.322 30.1566C168.58 31.2406 167.496 32.0964 166.07 32.724C164.672 33.323 163.032 33.6225 161.149 33.6225Z" fill="black"/>
<path fill-rule="evenodd" clip-rule="evenodd" d="M1.5101 0.267617C2.83961 -0.375698 4.43891 0.180579 5.08223 1.5101L16.6281 25.3717L24.3064 16.5559H17.7595C16.2825 16.5559 15.0852 15.3585 15.0852 13.8816C15.0852 12.4046 16.2825 11.2072 17.7595 11.2072H30.1821C31.2303 11.2072 32.1819 11.8196 32.6162 12.7737C33.0504 13.7278 32.8872 14.8475 32.1988 15.638L18.0015 31.9386C17.4115 32.616 16.5208 32.9519 15.6304 32.8328C14.74 32.7138 13.9688 32.1556 13.5775 31.3469L0.267617 3.83975C-0.375698 2.51023 0.180579 0.910932 1.5101 0.267617Z" fill="#FB923C"/>
</svg>
